# xmcd CD database file
#
# Track frame offsets:
#	150
#	37802
#	64965
#	90752
#	124587
#	144870
#	165840
#	184640
#
# Disc length: 2713 seconds
#
# Revision: 0
# Processed by: cddbd v1.5PL3 Copyright (c) Steve Scherf et al.
# Submitted via: CDex 1.50beta10
#
DISCID=520a9708
DTITLE=Various Artist - JAZZ VIBRAPHONE
DYEAR=1900
DGENRE=Jazz
TTITLE0=WHEN THE SAINTS GO MARCHING IN
TTITLE1=MOONGLOW
TTITLE2=T. AND S.
TTITLE3=ON GREEN DOLPHINE STREET
TTITLE4=NOW'S THE TIME
TTITLE5=RUSSIAN LULLABY
TTITLE6=SEVEN COME ELEVEN
TTITLE7=TOKYO BLUES
EXTD=
EXTT0=
EXTT1=
EXTT2=
EXTT3=
EXTT4=
EXTT5=
EXTT6=
EXTT7=
PLAYORDER=
